<svg width="200" height="60" viewBox="0 0 200 60" xmlns="http://www.w3.org/2000/svg">
  <!-- Background circle for anonymity -->
  <circle cx="30" cy="30" r="25" fill="#1e293b" stroke="#334155" stroke-width="2"/>
  
  <!-- Anonymous mask/face silhouette -->
  <path d="M15 25 C15 20, 20 15, 30 15 C40 15, 45 20, 45 25 C45 30, 40 35, 30 35 C20 35, 15 30, 15 25 Z" fill="#f8fafc"/>
  
  <!-- Eyes -->
  <circle cx="25" cy="25" r="2" fill="#1e293b"/>
  <circle cx="35" cy="25" r="2" fill="#1e293b"/>
  
  <!-- Business elements - briefcase -->
  <rect x="55" y="20" width="20" height="15" fill="#1e293b" stroke="#334155" stroke-width="1"/>
  <rect x="57" y="22" width="16" height="11" fill="#f8fafc"/>
  <rect x="60" y="25" width="10" height="1" fill="#1e293b"/>
  <rect x="60" y="27" width="10" height="1" fill="#1e293b"/>
  <rect x="60" y="29" width="10" height="1" fill="#1e293b"/>
  
  <!-- Handle -->
  <rect x="63" y="18" width="4" height="3" fill="#1e293b"/>
  
  <!-- Anonymous text -->
  <text x="85" y="25" font-family="Arial, sans-serif" font-size="16" font-weight="bold" fill="#1e293b">ANON</text>
  <text x="85" y="40" font-family="Arial, sans-serif" font-size="12" fill="#64748b">DEALER</text>
  
  <!-- Decorative elements -->
  <circle cx="160" cy="15" r="3" fill="#1e293b" opacity="0.6"/>
  <circle cx="170" cy="25" r="2" fill="#1e293b" opacity="0.4"/>
  <circle cx="165" cy="40" r="2.5" fill="#1e293b" opacity="0.5"/>
  <circle cx="180" cy="35" r="2" fill="#1e293b" opacity="0.3"/>
</svg>
